<svg width="147" height="68" viewBox="0 0 147 68" fill="none" xmlns="http://www.w3.org/2000/svg">
<path d="M26.2031 60.8438C25.2031 62.9062 23.7969 64.5469 21.9844 65.7656C20.1719 66.9531 18.1094 67.5469 15.7969 67.5469C13.8906 67.5469 12.1875 66.9688 10.6875 65.8125C9.1875 64.6562 7.85938 63.1406 6.70312 61.2656C5.57812 59.3906 4.60938 57.2812 3.79688 54.9375C3.01562 52.5625 2.35938 50.1562 1.82812 47.7188C1.32812 45.2812 0.953125 42.9375 0.703125 40.6875C0.484375 38.4062 0.375 36.4219 0.375 34.7344C0.375 32.6719 0.484375 30.4062 0.703125 27.9375C0.921875 25.4688 1.28125 22.9844 1.78125 20.4844C2.28125 17.9531 2.92188 15.5 3.70312 13.125C4.51562 10.75 5.48438 8.65625 6.60938 6.84375C7.76562 5 9.09375 3.53125 10.5938 2.4375C12.0938 1.3125 13.8125 0.75 15.75 0.75C17.4062 0.75 18.75 1.23437 19.7812 2.20312C20.8125 3.17188 21.625 4.375 22.2188 5.8125C22.8125 7.21875 23.2031 8.71875 23.3906 10.3125C23.6094 11.9062 23.7188 13.3281 23.7188 14.5781C23.7188 17.9531 23.3125 21.2812 22.5 24.5625C21.7188 27.8125 20.625 30.8906 19.2188 33.7969C17.8438 36.6719 16.2188 39.2969 14.3438 41.6719C12.4688 44.0156 10.4531 45.9844 8.29688 47.5781C8.73438 49.6719 9.25 51.7188 9.84375 53.7188C10.4688 55.6875 11.2188 57.4531 12.0938 59.0156C12.9688 60.5469 13.9688 61.7969 15.0938 62.7656C16.25 63.7031 17.5625 64.1719 19.0312 64.1719C20.5 64.1719 21.7656 63.875 22.8281 63.2812C23.8906 62.6875 24.875 61.8125 25.7812 60.6562L26.2031 60.8438ZM6.89062 31.9219C6.85938 32.6094 6.84375 33.4531 6.84375 34.4531C6.875 35.4531 6.92188 36.5625 6.98438 37.7812C7.07812 38.9688 7.20312 40.25 7.35938 41.625C7.51562 43 7.71875 44.4062 7.96875 45.8438C10.0625 43.9688 11.8438 41.8906 13.3125 39.6094C14.7812 37.3281 15.9844 34.875 16.9219 32.25C17.8594 29.5938 18.5312 26.8125 18.9375 23.9062C19.375 20.9688 19.5938 17.9219 19.5938 14.7656C19.5938 14.3594 19.5781 13.8281 19.5469 13.1719C19.5469 12.5156 19.5 11.8125 19.4062 11.0625C19.3125 10.3125 19.1719 9.5625 18.9844 8.8125C18.8281 8.0625 18.5938 7.39063 18.2812 6.79688C18 6.17188 17.625 5.67188 17.1562 5.29688C16.7188 4.89062 16.1875 4.6875 15.5625 4.6875C14.375 4.6875 13.3281 5.28125 12.4219 6.46875C11.5469 7.625 10.7812 9.10937 10.125 10.9219C9.5 12.7344 8.96875 14.7344 8.53125 16.9219C8.125 19.1094 7.79688 21.2188 7.54688 23.25C7.29688 25.25 7.125 27.0469 7.03125 28.6406C6.9375 30.2344 6.89062 31.3281 6.89062 31.9219ZM47.7188 41.4375C47.7188 41.7812 47.5938 42.0938 47.3438 42.375C47.0938 42.625 46.7969 42.75 46.4531 42.75C46.1719 42.75 45.875 42.6719 45.5625 42.5156C45.25 42.3281 44.8906 42.125 44.4844 41.9062C44.1094 41.6875 43.6562 41.5 43.125 41.3438C42.625 41.1562 42.0469 41.0625 41.3906 41.0625C39.8594 41.0625 38.4844 41.5469 37.2656 42.5156C36.0781 43.4531 35.0625 44.625 34.2188 46.0312C33.4062 47.4375 32.7812 48.9375 32.3438 50.5312C31.9062 52.125 31.6875 53.5625 31.6875 54.8438C31.6875 55.75 31.7656 56.6406 31.9219 57.5156C32.0781 58.3594 32.3438 59.1406 32.7188 59.8594C33.125 60.5469 33.6719 61.1094 34.3594 61.5469C35.0469 61.9531 35.9219 62.1562 36.9844 62.1562C38.1094 62.1562 39.1875 61.9531 40.2188 61.5469C41.25 61.1094 42.2188 60.5469 43.125 59.8594C43.1562 58.8594 43.3125 57.8125 43.5938 56.7188C43.9062 55.5938 44.2969 54.5 44.7656 53.4375C45.2344 52.3438 45.7656 51.3125 46.3594 50.3438C46.9844 49.375 47.625 48.5156 48.2812 47.7656L48.8906 48.1406C48.5469 49.2031 48.2969 50.2969 48.1406 51.4219C47.9844 52.5469 47.9062 53.6562 47.9062 54.75C47.9062 55.875 48 56.9375 48.1875 57.9375C48.375 58.9375 48.7031 59.8125 49.1719 60.5625C49.6406 61.2812 50.2812 61.8594 51.0938 62.2969C51.9062 62.7031 52.9531 62.9062 54.2344 62.9062C55.7969 62.9062 57.2344 62.5469 58.5469 61.8281C59.8594 61.1094 61.0156 60.2031 62.0156 59.1094L62.3906 59.2969C61.8281 60.3906 61.0938 61.4375 60.1875 62.4375C59.2812 63.4375 58.2656 64.3438 57.1406 65.1562C56.0469 65.9375 54.875 66.5625 53.625 67.0312C52.375 67.5 51.1406 67.7344 49.9219 67.7344C48.2031 67.7344 46.7969 67.2344 45.7031 66.2344C44.6094 65.2656 43.8594 64.0312 43.4531 62.5312C42.1406 63.8438 40.6719 64.9531 39.0469 65.8594C37.4531 66.7344 35.7656 67.1719 33.9844 67.1719C32.6719 67.1719 31.5 66.9219 30.4688 66.4219C29.4688 65.9531 28.625 65.3125 27.9375 64.5C27.25 63.6875 26.7188 62.7344 26.3438 61.6406C26 60.5156 25.8281 59.3438 25.8281 58.125C25.8281 56.7188 26.0469 55.2812 26.4844 53.8125C26.9531 52.3125 27.5781 50.8438 28.3594 49.4062C29.1719 47.9688 30.125 46.6094 31.2188 45.3281C32.3125 44.0469 33.5 42.9219 34.7812 41.9531C36.0938 40.9844 37.4688 40.2188 38.9062 39.6562C40.3438 39.0938 41.8125 38.8125 43.3125 38.8125C43.6562 38.8125 44.0781 38.8594 44.5781 38.9531C45.0781 39.0156 45.5625 39.1406 46.0312 39.3281C46.5 39.5156 46.8906 39.7812 47.2031 40.125C47.5469 40.4688 47.7188 40.9062 47.7188 41.4375ZM91.125 59.2969C90.4375 60.4531 89.625 61.5312 88.6875 62.5312C87.7812 63.5312 86.7656 64.4062 85.6406 65.1562C84.5469 65.9062 83.3594 66.4844 82.0781 66.8906C80.7969 67.3281 79.4688 67.5469 78.0938 67.5469C76.0625 67.5469 74.2656 67.2031 72.7031 66.5156C71.1719 65.8281 69.8438 64.9062 68.7188 63.75C67.5938 62.5625 66.6562 61.1875 65.9062 59.625C65.1562 58.0625 64.5625 56.4375 64.125 54.75C63.6875 53.0312 63.375 51.2812 63.1875 49.5C63 47.7188 62.9062 46.0156 62.9062 44.3906C62.9062 42.8906 62.9688 41.3594 63.0938 39.7969C63.2188 38.2031 63.4062 36.5781 63.6562 34.9219C62.6875 34.9531 61.7344 34.9688 60.7969 34.9688C59.8906 34.9688 58.9844 34.9688 58.0781 34.9688C57.4844 34.9688 56.8125 34.9531 56.0625 34.9219C55.3125 34.8906 54.6094 34.7656 53.9531 34.5469C53.2969 34.3281 52.75 34 52.3125 33.5625C51.875 33.125 51.6562 32.4844 51.6562 31.6406C51.6562 31.1719 51.75 30.7969 51.9375 30.5156C52.0938 30.2344 52.3281 30.0312 52.6406 29.9062C52.9219 29.75 53.2656 29.6562 53.6719 29.625C54.0469 29.5625 54.4375 29.5312 54.8438 29.5312C55.3125 29.5312 56.4219 29.6094 58.1719 29.7656C59.9219 29.9219 62.0312 30.0938 64.5 30.2812C65.2812 26.5938 66.2812 22.9688 67.5 19.4062C68.75 15.8438 70.1562 12.5938 71.7188 9.65625H72.375C71.375 13.0625 70.4844 16.5 69.7031 19.9688C68.9531 23.4375 68.3906 26.9531 68.0156 30.5156C70.2969 30.6719 72.6406 30.8125 75.0469 30.9375C77.4844 31.0312 79.8594 31.0781 82.1719 31.0781C85.5781 31.0781 88.3438 31.0469 90.4688 30.9844C92.5938 30.9219 94.2656 30.8438 95.4844 30.75C96.9219 30.625 98 30.5 98.7188 30.375L98.9062 31.1719C97.0312 31.6094 94.8906 32.0312 92.4844 32.4375C90.0781 32.8125 87.5156 33.1562 84.7969 33.4688C82.0781 33.75 79.2656 34 76.3594 34.2188C73.4531 34.4375 70.5625 34.6094 67.6875 34.7344C67.625 35.3594 67.5938 36 67.5938 36.6562C67.5938 37.2812 67.5938 37.9062 67.5938 38.5312C67.5938 40.0312 67.6562 41.6875 67.7812 43.5C67.9375 45.3125 68.2031 47.1406 68.5781 48.9844C68.9531 50.7969 69.4531 52.5781 70.0781 54.3281C70.7344 56.0469 71.5781 57.5781 72.6094 58.9219C73.6719 60.2344 74.9375 61.2969 76.4062 62.1094C77.875 62.9219 79.6094 63.3281 81.6094 63.3281C83.4531 63.3281 85.1094 62.9219 86.5781 62.1094C88.0781 61.2969 89.5 60.2969 90.8438 59.1094L91.125 59.2969ZM119.625 59.2969C118.938 60.4531 118.125 61.5312 117.188 62.5312C116.281 63.5312 115.266 64.4062 114.141 65.1562C113.047 65.9062 111.859 66.4844 110.578 66.8906C109.297 67.3281 107.969 67.5469 106.594 67.5469C104.562 67.5469 102.766 67.2031 101.203 66.5156C99.6719 65.8281 98.3438 64.9062 97.2188 63.75C96.0938 62.5625 95.1562 61.1875 94.4062 59.625C93.6562 58.0625 93.0625 56.4375 92.625 54.75C92.1875 53.0312 91.875 51.2812 91.6875 49.5C91.5 47.7188 91.4062 46.0156 91.4062 44.3906C91.4062 42.8906 91.4688 41.3594 91.5938 39.7969C91.7188 38.2031 91.9062 36.5781 92.1562 34.9219C91.1875 34.9531 90.2344 34.9688 89.2969 34.9688C88.3906 34.9688 87.4844 34.9688 86.5781 34.9688C85.9844 34.9688 85.3125 34.9531 84.5625 34.9219C83.8125 34.8906 83.1094 34.7656 82.4531 34.5469C81.7969 34.3281 81.25 34 80.8125 33.5625C80.375 33.125 80.1562 32.4844 80.1562 31.6406C80.1562 31.1719 80.25 30.7969 80.4375 30.5156C80.5938 30.2344 80.8281 30.0312 81.1406 29.9062C81.4219 29.75 81.7656 29.6562 82.1719 29.625C82.5469 29.5625 82.9375 29.5312 83.3438 29.5312C83.8125 29.5312 84.9219 29.6094 86.6719 29.7656C88.4219 29.9219 90.5312 30.0938 93 30.2812C93.7812 26.5938 94.7812 22.9688 96 19.4062C97.25 15.8438 98.6562 12.5938 100.219 9.65625H100.875C99.875 13.0625 98.9844 16.5 98.2031 19.9688C97.4531 23.4375 96.8906 26.9531 96.5156 30.5156C98.7969 30.6719 101.141 30.8125 103.547 30.9375C105.984 31.0312 108.359 31.0781 110.672 31.0781C114.078 31.0781 116.844 31.0469 118.969 30.9844C121.094 30.9219 122.766 30.8438 123.984 30.75C125.422 30.625 126.5 30.5 127.219 30.375L127.406 31.1719C125.531 31.6094 123.391 32.0312 120.984 32.4375C118.578 32.8125 116.016 33.1562 113.297 33.4688C110.578 33.75 107.766 34 104.859 34.2188C101.953 34.4375 99.0625 34.6094 96.1875 34.7344C96.125 35.3594 96.0938 36 96.0938 36.6562C96.0938 37.2812 96.0938 37.9062 96.0938 38.5312C96.0938 40.0312 96.1562 41.6875 96.2812 43.5C96.4375 45.3125 96.7031 47.1406 97.0781 48.9844C97.4531 50.7969 97.9531 52.5781 98.5781 54.3281C99.2344 56.0469 100.078 57.5781 101.109 58.9219C102.172 60.2344 103.438 61.2969 104.906 62.1094C106.375 62.9219 108.109 63.3281 110.109 63.3281C111.953 63.3281 113.609 62.9219 115.078 62.1094C116.578 61.2969 118 60.2969 119.344 59.1094L119.625 59.2969ZM147 59.2969C146.188 60.4844 145.203 61.5938 144.047 62.625C142.922 63.6562 141.672 64.5469 140.297 65.2969C138.953 66.0469 137.531 66.6406 136.031 67.0781C134.562 67.5156 133.078 67.7344 131.578 67.7344C129.453 67.7344 127.469 67.4531 125.625 66.8906C123.781 66.3594 122.172 65.5312 120.797 64.4062C119.422 63.2812 118.344 61.875 117.562 60.1875C116.781 58.4688 116.391 56.4688 116.391 54.1875C116.391 51.9375 116.797 49.8438 117.609 47.9062C118.453 45.9375 119.594 44.2344 121.031 42.7969C122.5 41.3281 124.219 40.1719 126.188 39.3281C128.156 38.4844 130.266 38.0625 132.516 38.0625C133.578 38.0625 134.562 38.2188 135.469 38.5312C136.406 38.8125 137.219 39.25 137.906 39.8438C138.594 40.4062 139.125 41.1094 139.5 41.9531C139.906 42.7969 140.109 43.7656 140.109 44.8594C140.109 46.1719 139.844 47.3281 139.312 48.3281C138.781 49.3281 138.078 50.2031 137.203 50.9531C136.328 51.7031 135.328 52.3281 134.203 52.8281C133.109 53.3281 131.953 53.7344 130.734 54.0469C129.547 54.3594 128.359 54.5938 127.172 54.75C126.016 54.875 124.953 54.9375 123.984 54.9375H122.859C123.266 57.7812 124.391 59.9531 126.234 61.4531C128.078 62.9531 130.625 63.7031 133.875 63.7031C136.188 63.7031 138.438 63.2969 140.625 62.4844C142.844 61.6719 144.844 60.5469 146.625 59.1094L147 59.2969ZM122.719 53.5312H123.891C125.016 53.5312 126.172 53.3594 127.359 53.0156C128.547 52.6406 129.609 52.1094 130.547 51.4219C131.516 50.7031 132.312 49.8281 132.938 48.7969C133.562 47.7656 133.875 46.5938 133.875 45.2812C133.875 44 133.594 42.9375 133.031 42.0938C132.5 41.25 131.562 40.8281 130.219 40.8281C128.844 40.8281 127.672 41.25 126.703 42.0938C125.766 42.9062 125 43.9219 124.406 45.1406C123.812 46.3281 123.375 47.5938 123.094 48.9375C122.844 50.25 122.719 51.4219 122.719 52.4531V53.5312Z" fill="#65412C"/>
</svg>
